<svg width="32" height="32" viewBox="0 0 32 32" fill="none" xmlns="http://www.w3.org/2000/svg">
<path d="M5.0876 10.8081L5.088 10.8084L12.401 17.0722L12.867 17.4713V18.0848V28.6956C12.867 28.8823 12.9567 29.0562 13.1094 29.1645C13.2067 29.2322 13.32 29.2667 13.4337 29.2667C13.5027 29.2667 13.566 29.255 13.621 29.2348L13.6268 29.2327L18.7005 27.3904L5.0876 10.8081ZM5.0876 10.8081C4.39615 10.2163 4.00033 9.35618 4.00033 8.44367V5.90443C4.00033 5.58606 4.25681 5.33333 4.56699 5.33333H27.367C27.6772 5.33333 27.9337 5.58606 27.9337 5.90443V8.45358C27.9337 9.3579 27.5421 10.2161 26.8617 10.8066L19.5268 17.1667L19.067 17.5655M5.0876 10.8081L19.067 17.5655M19.067 17.5655V18.1741M19.067 17.5655V18.1741M19.067 18.1741V26.8531C19.067 27.1049 18.9152 27.3122 18.7009 27.3902L19.067 18.1741Z" stroke="white" stroke-width="2.66667"/>
</svg>
